<?xml version="1.0" encoding="UTF-8" standalone="no"?>
<svg
   width="64"
   height="66"
   viewBox="0 0 64 66"
   version="1.1"
   xmlns="http://www.w3.org/2000/svg">
  <g>
    <path
       d="M 1.70,65.53 H 38.86 c 1.15,0 1.97,-1.13 1.62,-2.23 L 36.01,49.14 C 35.78,48.43 35.13,47.95 34.39,47.95 H 6.19 c -0.74,0 -1.39,0.48 -1.62,1.19 L 0.08,63.30 C -0.26,64.40 0.55,65.53 1.70,65.53 Z"
       fill="#d23c3a" />
    <path
       d="M 9.96,39.50 H 30.51 c 1.15,0 1.97,-1.13 1.62,-2.23 L 27.66,23.11 C 27.43,22.40 26.78,21.92 26.04,21.92 H 14.45 c -0.74,0 -1.39,0.48 -1.62,1.19 L 8.34,37.26 c -0.35,1.10 0.46,2.23 1.62,2.23 z"
       fill="#d23c3a" />
    <path
       d="M 43.83,1.19 C 43.60,0.48 42.95,0 42.20,0 H 21.41 C 20.67,0 20.02,0.48 19.79,1.19 L 16.61,11.22 c -0.35,1.10 0.46,2.23 1.62,2.23 h 13.36 c 0.74,0 1.39,0.48 1.62,1.19 l 15.71,49.68 c 0.22,0.71 0.88,1.19 1.62,1.19 H 61.91 c 1.15,0 1.97,-1.13 1.62,-2.23 z"
       fill="#031135" />
  </g>
</svg>
