<?xml version="1.0" encoding="UTF-8"?>
<svg
   xmlns="http://www.w3.org/2000/svg"
   version="1.1"
   height="400"
   width="400"
   viewBox="0 0 400 400">
    <path
       style="fill:#d1d3d4;stroke-width:1.000"
       d="m 282.969,298.386 28.871,-64.106 h -74.437 l -78.687,-110.941 -2.389,-3.347 c -8.225,-13.331 -4.115,-30.826 9.180,-39.072 l 6.145,-2.928 c 14.436,-5.018 30.246,2.308 35.789,16.587 5.542,14.278 -1.167,30.396 -15.188,36.485 l 38.622,54.481 0.530,-0.304 c 1.175,-0.760 3.793,-2.662 4.210,-2.852 32.361,-23.359 46.698,-64.520 35.878,-103.004 C 260.676,40.899 227.01,13.310 187.246,10.342 v 0 0 c -2.161,0 -4.324,-0.342 -6.524,-0.342 -36.276,0.061 -69.341,20.866 -85.176,53.595 -15.835,32.729 -11.666,71.649 10.737,100.260 l 9.180,13.010 C 74.784,199.737 52.207,245.243 58.554,291.575 v 0 c 5.828,41.690 34.068,76.779 73.475,91.293 39.406,14.514 83.580,6.211 114.933,-21.784 l 15.441,21.154 79.825,0.075 z m -111.884,22.826 c -21.919,0.024 -40.673,-15.781 -44.421,-37.438 -3.747,-21.657 8.598,-42.874 29.245,-50.257 l 50.421,70.459 c -8.484,10.879 -21.473,17.258 -35.245,17.310 z" />
    <path
       style="fill:#62c7c9"
       d="m 206.406,304.054 c -12.188,15.635 -33.169,21.390 -51.597,14.152 L 58.554,291.575 c 14.743,32.151 32.950,67.414 59.336,85.062 42.988,24.767 101.946,12.508 129.072,-15.553 z" />
    <path
       d="m 262.404,382.238 h 80.090 l -59.527,-83.911 28.873,-64.047 -73.946,43.787 z"
       style="fill:#efc62a" />
    <path
       style="fill:#05aca1"
       d="m 206.406,304.054 c -12.188,15.635 -33.169,21.390 -51.597,14.152 L 58.554,291.575 c 0,0 57.009,46.326 85.629,69.508 h 102.779 z" />
    <path
       style="fill:#32bdb5"
       d="m 58.554,291.575 c 4.997,36.626 26.949,67.958 59.590,85.141 l 26.038,-15.632 z" />
    <path
       d="m 311.840,234.279 -73.359,43.418 44.487,20.628 z"
       style="fill:#e2d636" />
    <path
       d="M 115.277 104.695 L 115.464 176.867 L 237.894 278.066 L 311.841 234.279 L 237.441 234.279 L 237.404 234.279 L 237.291 234.121 L 115.277 104.695 z M 185.623 274.990 L 206.330 303.976 L 246.962 361.083 L 206.406 303.994 L 185.623 274.990 z "
       style="fill:#bbd64c" />
    <path
       d="M 262.404,382.238 237.895,278.066 115.464,176.866 l 40.444,56.650 50.496,70.476 40.557,57.089 z"
       style="fill:#8ec740" />
    <path
       style="fill:#d9dd36"
       d="M 237.441,234.278 158.754,123.337 156.364,119.99 c -8.225,-13.331 -4.153,-30.825 9.142,-39.071 L 115.276,104.695 Z" />
</svg>
