<?xml version="1.0" encoding="UTF-8"?>

<svg
   xmlns="http://www.w3.org/2000/svg"
   viewBox="0 0 400 400"
   height="400"
   width="400"
   version="1.1">
  <path
     style="fill:#e17b45"
     d="m 72.293,120.824 c -1.247,-0.314 -1.332,-1.494 -1.283,-18.028 l 0.038,-13.892 c 0.004,-2.009 0.112,-2.278 1.884,-3.468 22.372,-15.032 69.901,-46.941 101.180,-66.317 5.036,-3.120 10.829,-6.091 15.855,-7.723 10.146,-3.977 27.340,0.757 42.009,11.576 33.373,22.715 88.018,57.918 94.484,62.088 2.440,1.572 2.464,1.891 2.466,5.577 0.002,2.598 0.069,6.946 0.069,13.085 0,19.873 0.325,19.354 -8.481,13.552 C 283.956,93.274 245.582,68.952 213.426,49.106 c -7.525,-5.007 -21.001,-4.180 -28.643,0.810 -26.221,17.132 -72.232,47.594 -109.328,70.018 -1.072,0.648 -2.142,1.144 -3.149,0.888 z" />
  <path
     style="fill:#1b4889"
     d="m 193.860,389.126 c -4.670,-1.380 -6.878,-3.441 -8.936,-8.331 l -0.932,-2.216 v -54.434 -54.434 l 0.911,-1.961 c 5.000,-10.740 24.157,-11.704 29.341,-1.477 1.867,3.682 1.865,3.635 1.738,60.093 l -0.118,53.427 -1.044,2.216 c -3.054,6.481 -12.394,9.654 -20.959,7.121 z m -44.583,-45.746 c -1.089,-0.614 -22.573,-14.766 -25.290,-16.660 -1.960,-1.365 -9.177,-6.162 -22.086,-14.683 -16.326,-10.775 -18.260,-12.682 -21.870,-21.572 -2.428,-5.979 -2.411,-5.491 -2.261,-63.293 0.150,-58.938 -0.069,-54.591 3.126,-60.975 3.891,-7.769 7.441,-10.862 21.187,-18.450 28.810,-15.764 50.795,-28.461 79.883,-44.404 15.290,-8.366 25.424,-6.988 47.815,6.511 20.498,11.586 55.404,30.499 77.465,43.124 6.239,3.570 11.017,9.796 13.771,17.945 l 0.953,3.084 0.120,54.637 c 0.086,39.615 -0.004,55.032 -0.338,56.771 -1.400,7.324 -6.838,15.439 -13.298,19.848 -12.428,8.388 -26.739,17.531 -38.026,25.166 -21.369,14.498 -22.871,15.218 -24.066,11.554 -0.685,-2.102 -0.399,-33.860 0.310,-34.717 0.302,-0.365 8.043,-5.656 17.202,-11.755 20.794,-13.849 22.566,-15.602 25.295,-25.018 l 0.928,-3.207 v -38.306 c 0,-42.812 0.184,-39.902 -2.893,-45.818 -2.965,-5.700 -6.893,-9.179 -16.068,-14.234 -17.697,-9.665 -36.382,-20.310 -52.925,-29.445 -9.875,-5.451 -11.476,-5.987 -17.879,-5.987 -7.754,2.1e-4 -7.927,0.073 -33.087,14.151 -12.189,6.593 -23.992,13.554 -35.788,19.843 -0.412,0 -10.888,6.226 -11.912,7.079 -3.593,2.995 -6.705,7.750 -8.435,12.878 l -0.949,2.820 -0.120,37.700 c -0.122,38.486 -0.052,40.717 1.419,44.758 1.918,5.261 6.882,11.046 12.616,14.704 5.856,3.798 11.798,7.856 16.542,11.020 6.102,4.070 11.595,7.841 12.204,8.379 l 1.108,0.975 v 17.263 17.263 l -0.932,0.876 c -1.110,1.042 -2.068,1.083 -3.714,0.154 z" />
</svg>
