<?xml version="1.0" encoding="UTF-8"?>

<svg
  xmlns="http://www.w3.org/2000/svg"
  version="1.1"
  height="400"
  width="400"
  viewBox="0 0 400 400">

  <path
     style="fill:#e53238"
     d="M 59.136929,157.16289 C 32.334471,157.16289 10,168.51451 10,202.76186 c 0,27.13142 15.018315,44.21717 49.828998,44.21717 40.973802,0 43.600372,-26.94483 43.600372,-26.94483 H 83.57563 c 0,0 -4.256809,14.50875 -24.957754,14.50875 -16.860354,0 -28.986981,-11.37031 -28.986981,-27.30745 h 75.874685 v -10.00079 c 0,-15.76686 -10.026107,-40.07182 -46.368651,-40.07182 z m -0.692071,12.78153 c 16.049312,0 26.990708,9.81543 26.990708,24.52671 H 30.070013 c 0,-15.61782 14.28131,-24.52671 28.374845,-24.52671 z"
     id="e" />
  <path
     style="fill:#0064d2"
     d="m 105.4915,124 v 105.78016 c 0,6.00441 -0.42928,14.4353 -0.42928,14.4353 h 18.93628 c 0,0 0.67969,-6.05518 0.67969,-11.58903 0,0 9.35575,14.6117 34.79472,14.6117 26.78826,0 44.98451,-18.56663 44.98451,-45.16717 0,-24.74609 -16.71384,-44.64899 -44.94126,-44.64899 -26.43299,0 -34.64672,14.24968 -34.64672,14.24968 V 124 Z m 49.13692,46.50577 c 18.19131,0 29.75899,13.47816 29.75899,31.56519 0,19.39506 -13.36028,32.08337 -29.62922,32.08337 -19.41556,0 -29.88875,-15.13383 -29.88875,-31.91065 0,-15.63271 9.3979,-31.73791 29.75898,-31.73791 z"
     id="b" />
  <path
     style="fill:#f5af02"
     d="m 251.51814,157.16289 c -40.32227,0 -42.9083,22.04098 -42.9083,25.56305 h 20.07001 c 0,0 1.05246,-12.8679 21.45415,-12.8679 13.25735,0 23.53037,6.0578 23.53037,17.70416 v 4.14536 H 250.134 c -31.23823,0 -47.75279,9.1229 -47.75279,27.63574 0,18.2193 15.25893,28.13232 35.87948,28.13232 28.10261,0 37.15547,-15.50192 37.15547,-15.50192 0,6.1658 0.47618,12.24176 0.47618,12.24176 h 17.84203 c 0,0 -0.69207,-7.53133 -0.69207,-12.34973 v -41.64791 c 0,-27.30797 -22.06422,-33.05493 -41.52416,-33.05493 z m 22.14623,46.98075 v 5.52715 c 0,7.20891 -4.45598,25.13124 -30.68896,25.13124 -14.36509,0 -20.52418,-7.15704 -20.52418,-15.45873 0,-15.10239 20.74128,-15.19966 51.21314,-15.19966 z"
     id="a" />
  <path
     style="fill:#86b817"
     d="m 282.2349,160.62084 h 22.57877 l 32.40367,64.80827 32.32953,-64.80827 H 390 L 331.11231,276 h -21.45416 l 16.99278,-32.16351 z"
     id="y" />
</svg>
