<?xml version="1.0" encoding="UTF-8"?>
<svg
   xmlns="http://www.w3.org/2000/svg"
   version="1.1"
   viewBox="0 0 80 80"
   height="80"
   width="80">
  <circle
    r="39"
    cy="40"
    cx="40"
    style="fill:#ffffff;stroke:#000000;stroke-width:1.618" />
  <path
    d="m 11.809,55.191 c 2.1986,-0.1888 6.8471,-0.1888 9.2342,-0.1888 2.387,0 7.0984,0 9.2971,0.1888 v -1.9516 h -1.5076 c -4.837,0 -4.9626,-0.6925 -4.9626,-2.959 v -14.984 h 10.6163 c 7.5382,0 14.3226,-5.0996 14.3226,-11.3953 0,-6.1699 -6.2191,-11.7101 -14.8252,-11.7101 H 11.809 v 1.9516 h 1.5076 c 4.837,0 4.9626,0.6925 4.9626,2.959 v 33.1786 c 0,2.2664 -0.1256,2.959 -4.9626,2.959 H 11.809 Z M 23.6816,33.6595 V 16.6609 c 0,-2.0775 0.1256,-2.5183 3.078,-2.5183 h 5.5908 c 9.9881,0 9.9881,6.6735 9.9881,9.7584 0,2.959 0,9.7584 -9.9881,9.7584 z"
    style="fill:#000000" />
  <path
    d="m 26.809,39.5101 c 3.2542,0 3.4278,0.2127 3.9485,1.7872 l 8.6781,26.0851 c 0.1302,0.383 0.2603,0.8086 0.8244,0.8086 0.6074,0 0.6942,-0.2978 0.8678,-0.851 L 48.2872,45.723 55.49,67.3825 c 0.1303,0.3829 0.2604,0.8085 0.8245,0.8085 0.6074,0 0.6942,-0.2978 0.8678,-0.851 l 8.2875,-24.9787 c 0.781,-2.4255 2.6468,-2.8511 4.339,-2.8511 V 38.191 c -1.3017,0.0851 -2.6468,0.1276 -3.9485,0.1276 -1.2583,0 -4.0353,-0.0851 -5.1634,-0.1276 v 1.3191 c 2.9071,0.0424 3.7749,1.4468 3.7749,2.2553 0,0.2553 -0.1301,0.5957 -0.2169,0.851 L 57.7464,62.2761 50.8039,41.425 c -0.0433,-0.1702 -0.1301,-0.4255 -0.1301,-0.6383 0,-1.2765 2.5166,-1.2765 3.6448,-1.2765 V 38.191 c -1.562,0.1276 -4.5126,0.1276 -6.1614,0.1276 -1.6488,0 -3.5146,-0.0851 -5.2936,-0.1276 v 1.3191 c 2.4732,0 3.3844,0 3.9051,1.5318 l 0.9545,2.9788 -6.0313,18.2554 -6.9859,-20.9362 c -0.0433,-0.1276 -0.0867,-0.4255 -0.0867,-0.5531 0,-1.2765 2.5166,-1.2765 3.6448,-1.2765 V 38.191 c -1.562,0.1276 -4.5126,0.1276 -6.1614,0.1276 -1.6488,0 -3.5146,-0.0851 -5.2936,-0.1276 z" />
</svg>
