<svg xmlns="http://www.w3.org/2000/svg" viewBox="0 0 160 156" height="156" width="160" xmlns:xlink="http://www.w3.org/1999/xlink">
  <title>GitHub</title>
  <defs>
    <g id="logo">
      <path
        fill="currentColor"
        d="M 80.000662,5.6666698e-7 C 35.823307,5.6666698e-7 -5.7102669e-7,35.805078 -5.7102669e-7,79.974741 -5.7102669e-7,115.30968 22.922623,145.28762 54.709335,155.86255 c 3.998178,0.74031 5.466031,-1.7349 5.466031,-3.84724 0,-1.90706 -0.07419,-8.20698 -0.108626,-14.88964 -22.256261,4.83784 -26.952598,-9.43598 -26.952598,-9.43598 -3.639163,-9.24396 -8.882632,-11.70195 -8.882632,-11.70195 -7.258456,-4.96365 0.547132,-4.86168 0.547132,-4.86168 8.033452,0.56285 12.263465,8.24274 12.263465,8.24274 7.135252,12.22506 18.715132,8.69038 23.280315,6.64691 0.71803,-5.16893 2.791306,-8.69832 5.079198,-10.69411 -17.769241,-2.02228 -36.448603,-8.87976 -36.448603,-39.523853 0,-8.731428 3.125149,-15.865692 8.242765,-21.466361 -0.830636,-2.015657 -3.568951,-10.148481 0.774994,-21.164409 0,0 6.717947,-2.149417 22.00588,8.197716 6.381453,-1.771979 13.225253,-2.660616 20.024011,-2.691076 6.798757,0.03047 13.647857,0.919097 20.041233,2.691076 15.26939,-10.347133 21.97806,-8.197716 21.97806,-8.197716 4.35454,11.015928 1.6149,19.148752 0.78427,21.164409 5.12953,5.600669 8.23349,12.734933 8.23349,21.466361 0,30.716933 -18.71513,37.480383 -36.529416,39.460283 2.86947,2.48183 5.42629,7.34881 5.42629,14.81018 0,10.70074 -0.09273,19.31297 -0.09273,21.9471 0,2.12823 1.440026,4.62198 5.495176,3.83664 C 137.10652,145.26511 160,115.29776 160,79.974741 160,35.805078 124.18199,5.6666698e-7 80.000662,5.6666698e-7" />
      <path
        fill="currentColor"
        d="m 30.30031,114.82629 c -0.176196,0.39863 -0.801491,0.5165 -1.371145,0.24368 -0.580252,-0.2609 -0.906147,-0.80255 -0.71803,-1.20118 0.172222,-0.4079 0.798842,-0.5218 1.37777,-0.25031 0.581577,0.26223 0.912772,0.80918 0.711405,1.20781 v 0" />
      <path
        fill="currentColor"
        d="m 33.540715,118.43911 c -0.381536,0.3536 -1.127385,0.18938 -1.63345,-0.36949 -0.523287,-0.55755 -0.62132,-1.30316 -0.234486,-1.66206 0.393459,-0.35227 1.116788,-0.18673 1.6414,0.36949 0.523287,0.56418 0.625295,1.30449 0.226536,1.66206 v 0" />
      <path
        fill="currentColor"
        d="m 36.695011,123.0452 c -0.490168,0.34035 -1.291659,0.0212 -1.787125,-0.68999 -0.490168,-0.71118 -0.490168,-1.56406 0.01053,-1.90574 0.496791,-0.34168 1.286359,-0.0331 1.788449,0.67145 0.488843,0.72309 0.488843,1.57597 -0.01187,1.92428 v 0" />
      <path
        fill="currentColor"
        d="m 41.016435,127.49501 c -0.438501,0.48338 -1.372469,0.3536 -2.056055,-0.30593 -0.699482,-0.64496 -0.894225,-1.56008 -0.454398,-2.04347 0.4438,-0.48471 1.383068,-0.3483 2.071952,0.30593 0.694182,0.64363 0.906148,1.56538 0.438501,2.04347 v 0" />
      <path
        fill="currentColor"
        d="m 46.977933,130.07881 c -0.193417,0.62642 -1.092941,0.91115 -1.999089,0.64496 -0.904822,-0.27414 -1.496998,-1.00783 -1.314178,-1.64087 0.188117,-0.63039 1.091616,-0.92704 2.004388,-0.64231 0.903498,0.27282 1.496998,1.00121 1.308879,1.63822 v 0" />
      <path
        fill="currentColor"
        d="m 53.524984,130.55822 c 0.02252,0.65953 -0.745851,1.20648 -1.69704,1.2184 -0.956489,0.0212 -1.73016,-0.51252 -1.740757,-1.16145 0,-0.66615 0.751148,-1.20781 1.707637,-1.2237 0.951191,-0.0185 1.73016,0.5112 1.73016,1.16675 v 0" />
      <path
        fill="currentColor"
        d="m 59.617636,129.52126 c 0.113933,0.64363 -0.547133,1.30448 -1.4917,1.48062 -0.928669,0.16952 -1.788449,-0.22779 -1.906355,-0.86612 -0.115253,-0.65953 0.557731,-1.32038 1.485076,-1.49122 0.945891,-0.16422 1.792424,0.22249 1.912979,0.87672 v 0" />
    </g>
  </defs>
  <use xlink:href="#logo" x="0" y="0" />
</svg>
