<?xml version="1.0" encoding="UTF-8" standalone="no"?>
<svg
   version="1.1"
   width="1320"
   height="780"
   viewBox="0 0 1320 780"
   xmlns="http://www.w3.org/2000/svg"
   xmlns:svg="http://www.w3.org/2000/svg">
  <g>
    <path
       style="fill:#fed502;stroke-width:1.55"
       d="m 216.89,464.15 c 20.91,-370.06 443.07,-560.67 730.61,-329.89 100.73,80.85 165.88,224.14 166.04,337.27 l 0.01,11.6 -165.47,0.29 c 0,0 0.33,-9.85 -0.25,-19.29 -12.07,-192.65 -214.65,-317.52 -392.27,-241.79 -101.49,43.28 -163,130.82 -173.43,246.86 l -0.43,14.02 -165.88,0.02 z" />
    <g
       aria-label="IntelliBridge">
      <path
         d="m 55.57,711.34 v -183.39 h -36.21 l 0,183.39 z" />
      <path
         d="m 116.83,638.13 c 0,-14.74 8.79,-26.38 23.79,-26.38 16.55,0 23.53,11.12 23.53,25.34 v 74.23 h 34.4 v -80.18 c 0,-27.93 -14.48,-50.44 -46.04,-50.44 -13.7,0 -28.97,5.94 -36.73,19.14 v -15.77 H 82.42 v 127.26 H 116.82 Z" />
      <path
         d="m 263.26,546.05 h -31.04 v 17.84 c 0,11.38 -6.2,20.17 -19.65,20.17 h -6.46 v 30.52 h 23.02 v 59.23 c 0,24.57 15.52,39.31 40.35,39.31 10.08,0 16.29,-1.81 19.4,-3.1 v -28.45 c -1.81,0.51 -6.46,1.03 -10.6,1.03 -9.82,0 -15,-3.62 -15,-14.74 v -53.28 h 25.6 v -30.52 h -25.6 z" />
      <path
         d="m 329.27,633.22 c 0.77,-11.64 10.6,-25.09 28.45,-25.09 19.65,0 27.93,12.41 28.45,25.09 z m 60.26,33.1 c -4.13,11.38 -12.93,19.4 -28.97,19.4 -17.07,0 -31.29,-12.15 -32.07,-28.97 h 91.05 c 0,-0.51 0.51,-5.69 0.51,-10.6 0,-40.86 -23.53,-65.96 -62.85,-65.96 -32.59,0 -62.59,26.38 -62.59,66.99 0,42.93 30.78,68.02 65.7,68.02 31.29,0 51.47,-18.36 57.94,-40.35 z" />
      <path
         d="m 468.90,711.34 v -187.27 h -34.4 v 187.27 z" />
      <path
         d="m 527.49,711.34 v -187.27 h -34.4 v 187.27 z" />
      <path
         d="m 586.07,711.34 v -127.27 h -34.4 v 127.26 z m -38.54,-168.9 c 0,11.38 9.57,20.95 21.21,20.95 11.89,0 21.21,-9.57 21.21,-20.95 0,-11.89 -9.31,-21.46 -21.21,-21.46 -11.64,0 -21.21,9.57 -21.21,21.46 z" />
      <path
         d="m 612.84,527.94 v 183.39 h 70.87 c 34.4,0 56.64,-21.46 56.64,-51.21 0,-22.76 -14.48,-39.05 -32.33,-43.45 15.26,-5.17 26.64,-20.43 26.64,-39.31 0,-28.45 -20.17,-49.4 -55.87,-49.4 z m 35.17,75.78 v -45.78 h 25.09 c 17.33,0 26.38,8.79 26.38,22.76 0,13.96 -9.82,23.02 -26.12,23.02 z m 0,77.85 v -48.37 h 29.48 c 17.84,0 27.16,10.08 27.16,24.57 0,14.74 -10.34,23.79 -27.67,23.79 z" />
      <path
         d="m 832.32,583.55 c -2.58,-0.25 -5.17,-0.51 -8.01,-0.51 -10.86,0 -28.45,3.1 -36.21,19.91 v -18.88 h -33.36 v 127.26 h 34.4 v -58.2 c 0,-27.41 15.26,-35.95 32.85,-35.95 3.1,0 6.46,0.25 10.34,1.03 z" />
      <path
         d="m 878.53,711.34 v -127.27 h -34.4 v 127.26 z m -38.54,-168.9 c 0,11.38 9.57,20.95 21.21,20.95 11.89,0 21.21,-9.57 21.21,-20.95 0,-11.89 -9.31,-21.46 -21.21,-21.46 -11.64,0 -21.21,9.57 -21.21,21.46 z" />
      <path
         d="m 1024.03,524.06 h -33.88 v 72.68 c -3.62,-6.72 -13.96,-15.77 -35.95,-15.77 -35.95,0 -61.04,29.22 -61.04,66.47 0,38.54 25.86,66.99 62.08,66.99 17.07,0 30,-7.76 35.69,-17.84 0,5.94 0.77,12.15 1.29,14.74 h 32.85 c -0.51,-5.17 -1.03,-14.48 -1.03,-23.02 z m -96.22,123.38 c 0,-22.76 13.96,-35.69 31.55,-35.69 17.58,0 31.29,12.67 31.29,35.43 0,23.02 -13.7,36.47 -31.29,36.47 -18.1,0 -31.55,-13.45 -31.55,-36.21 z" />
      <path
         d="m 1039.64,718.32 c 3.62,24.31 26.9,46.04 61.82,46.04 47.85,0 66.73,-31.81 66.73,-66.73 v -113.56 h -33.1 v 15 c -4.39,-8.53 -16.03,-17.33 -36.21,-17.33 -34.92,0 -59.23,28.45 -59.23,62.08 0,35.69 25.34,61.82 59.23,61.82 18.36,0 30.26,-8.01 35.43,-16.29 v 9.31 c 0,24.57 -12.15,35.43 -33.88,35.43 -16.29,0 -27.41,-10.08 -29.74,-24.05 z m 65.18,-42.16 c -17.84,0 -30.52,-12.41 -30.52,-32.33 0,-19.65 13.45,-32.07 30.52,-32.07 16.55,0 30,12.41 30,32.07 0,19.65 -12.41,32.33 -30,32.33 z" />
      <path
         d="m 1215.73,633.22 c 0.77,-11.64 10.6,-25.09 28.45,-25.09 19.65,0 27.93,12.41 28.45,25.09 z m 60.26,33.1 c -4.13,11.38 -12.93,19.4 -28.97,19.4 -17.07,0 -31.29,-12.15 -32.07,-28.97 h 91.05 c 0,-0.51 0.51,-5.69 0.51,-10.6 0,-40.86 -23.53,-65.96 -62.85,-65.96 -32.59,0 -62.59,26.38 -62.59,66.99 0,42.93 30.78,68.02 65.7,68.02 31.29,0 51.47,-18.36 57.94,-40.35 z" />
    </g>
  </g>
</svg>
