<?xml version="1.0" encoding="UTF-8"?>

<svg
   xmlns="http://www.w3.org/2000/svg"
   width="400"
   height="400"
   viewBox="0 0 400 400"
   version="1.1">
  <style>
    .bubble { fill: #c0e7fa; }
    .text { fill: #0077bf; }
  </style>
  <path
    d="m 170.1114,224.1745 c 2.9918,-0.8402 8.6888,-4.5490 9.1758,-9.4791 -4.0611,-9.8885 -11.8468,-28.7105 -11.8468,-28.7105 l 8.0077,-0.0711 c 0,0 5.6058,16.7977 7.1941,21.7138 0.1699,0.5258 0.4943,0.6492 0.7046,0.6462 0.2793,-0.006 0.5522,-0.1360 0.6982,-0.7082 1.5437,-6.0472 5.9493,-21.4196 5.9493,-21.4196 l 7.5375,0.0276 c 0,0 -10.0702,27.2065 -11.8941,30.8968 -4.2480,7.9831 -6.8100,10.2513 -13.8282,12.9294 -0.5661,-1.9417 -1.1322,-3.8833 -1.6984,-5.8251 z"
    class="text" />
  <path
    d="m 75.0430,224.0202 c 3.0317,0.03 7.2145,-2.0181 7.2215,-6.2155 0.0198,-11.8922 -0.0376,-31.9655 -0.0376,-31.9655 h 7.3599 c 0,0 -0.0687,18.7094 -0.0814,28.2020 C 89.4928,223.4500 85.1889,229.0862 75,229.2464 Z"
    class="text" />
  <path
    d="m 105.2998,216.5157 c -2.1482,-0.6814 -4.4442,-2.7511 -5.7946,-5.2235 -0.8068,-1.4771 -1.0483,-4.1684 -1.2248,-13.6465 l -0.2198,-11.8065 h 7.4727 l 9.8e-4,9.6598 c 6.1e-4,7.9681 0.1887,10.0356 1.0733,11.8057 2.0585,4.1193 6.6741,4.6627 9.6423,1.1352 1.5237,-1.8111 1.5496,-2.0151 1.5496,-12.2213 v -10.3794 h 7.9732 c 0.031,10.1920 -0.0256,20.3837 -0.0774,30.5755 l -6.5798,-0.0478 c 0,0 0.0653,-1.9225 0.0252,-3.1296 -0.0701,-2.1060 -0.9468,-1.6074 -1.7706,-0.1686 -1.5091,2.6356 -8.4130,4.6072 -12.0704,3.4470 z"
    class="text" />
  <path
    d="m 212.2072,214.8225 1.1746,-5.2138 c 8.0228,3.0077 12.9492,2.7553 13.1346,-1.6305 0.0875,-2.0678 -0.7654,-3.0695 -6.2141,-5.0229 -6.6927,-2.3993 -8.8147,-6.4983 -6.5653,-11.8819 1.5223,-3.6435 5.3002,-5.6494 10.8019,-5.5932 4.6149,0.0472 7.6513,1.4213 7.6513,1.4213 l -1.2261,5.0329 c -3.4861,-1.2487 -9.0634,-2.4257 -10.3588,0.4146 -1.0944,2.3995 -0.0966,4.4758 3.2095,5.5266 5.8314,1.8535 7.1926,3.0787 8.5185,5.0739 2.6883,4.0453 1.3426,9.9900 -3.2760,12.1232 -7.0041,3.2351 -11.1763,1.8939 -16.8502,-0.2504 z"
    class="text" />
  <path
    d="m 155.2127,172.3459 v 8.2799 c 0,4.5539 -0.1494,8.2799 -0.3318,8.2799 -0.1823,0 -1.1032,-0.5707 -2.0472,-1.2686 -3.4883,-2.5790 -8.4963,-2.7930 -12.9541,-0.5534 -9.6785,4.8624 -9.7296,23.0919 -0.0791,28.1914 4.3957,2.3227 10.4484,1.4623 14.0322,-1.9944 l 1.9933,-1.9226 v 2.2676 2.2664 h 3.4607 3.4607 l -0.3941,-3.7698 c -0.2167,-2.0734 -0.3941,-11.8713 -0.3941,-21.7730 v -18.0032 z m -7.3599,18.3997 c 7.4774,0 10.3385,14.4029 3.7422,18.8381 -5.6521,3.8002 -11.7167,-0.6020 -11.7142,-8.5038 0.002,-5.5527 3.6898,-10.3343 7.9720,-10.3343 z"
    class="text" />
  <path
    d="M 253.34,172.3505 V 216.51 h 6.1332 v -2.1466 c 0,-1.0687 -0.1008,-2.4173 0.8265,-2.7288 0.9276,0.0799 2.299,4.7436 9.5245,4.7436 2.1334,-3.6e-4 4.2923,-0.2790 5.9727,-1.0421 6.3409,-2.8795 9.5632,-13.3348 6.6519,-21.5861 -1.8273,-5.1791 -6.6543,-8.2135 -11.5358,-8.2846 -3.4889,-0.006 -7.3596,2.1629 -10.1390,4.9832 l -0.1066,-18.0979 z m 14.9426,18.5806 c 7.8210,-0.2930 11.251,13.3157 4.3064,18.7783 -1.0683,0.8403 -2.5201,1.2805 -4.2226,1.2805 -9.8031,0 -10.5948,-18.5280 -0.8541,-19.9870 0.2612,-0.0393 0.5179,-0.0624 0.7702,-0.0718 z"
    class="text" />
  <path
    d="m 304.4197,185.6474 c -2.4277,-0.0258 -4.8605,0.3254 -6.6088,1.0625 -11.7113,4.9374 -11.9121,23.8073 -0.3066,28.8203 2.6387,1.1398 9.3287,1.2038 12.3671,0.1186 12.034,-4.2983 12.7875,-23.5717 1.1260,-28.7987 -1.7271,-0.7741 -4.1499,-1.1767 -6.5776,-1.2026 z m 0.2276,5.0982 c 7.7910,0 10.1496,15.3530 3.0259,19.6970 -5.9213,3.6107 -12.0921,-2.3426 -11.2171,-10.8206 0.6023,-5.8365 3.4075,-8.8764 8.1912,-8.8764 z"
    class="text" />
  <path
    d="m 361.9035,172.3459 h 7.3325 l -0.0524,25.4553 c -0.005,0.5234 0.026,0.8344 0.3044,1.1181 0.7842,0.7988 0.9083,0.3347 1.3856,-0.3776 l 9.1784,-12.3959 8.2243,0.0332 -10.0622,11.0337 c -0.7115,0.6547 -0.5965,2.1322 -0.053,2.8522 l 10.8228,14.1405 1.2158,1.6866 -8.8218,-0.022 -8.3835,-12.7415 c -0.3483,-0.6254 -0.9547,-0.3848 -1.4149,0.0588 l -2.2217,2.3279 -0.0945,10.3761 h -7.3598 z"
    class="text" />
  <path
    d="m 202.6654,188.6305 c 1.6384,-5.0317 2.6050,-9.1100 3.7556,-15.0579 l 6.1181,0.0312 c -1.0037,5.7442 -4.0525,11.7975 -6.1343,15.1246 z"
    class="text" />
  <path
    d="m 84.0669,180.7517 c -1.9486,-0.9750 -2.4270,-4.2872 -0.8680,-6.0098 1.3774,-1.5220 4.2235,-1.4937 5.7746,0.0574 3.0764,3.0764 -0.9330,7.9407 -4.9066,5.9525 z"
    class="text" />
  <path
    d="m 340.0474,185.5959 c -2.4277,-0.0258 -4.8605,0.3254 -6.6088,1.0625 -11.7113,4.9374 -11.9121,23.8074 -0.3066,28.8203 2.6387,1.1398 9.3287,1.2037 12.3671,0.1185 12.034,-4.2983 12.7875,-23.5717 1.1260,-28.7987 -1.7271,-0.7741 -4.1498,-1.1767 -6.5776,-1.2026 z m 0.2276,5.0982 c 7.7910,0 10.1496,15.3530 3.0259,19.6970 -5.9213,3.6107 -12.0921,-2.3425 -11.2171,-10.8206 0.6023,-5.8365 3.4075,-8.8764 8.1912,-8.8764 z"
    class="text" />
  <path
    d="m 28.9666,169.2916 c -7.8169,0.0296 -11.8389,0.1947 -14.1232,0.7617 -1.9535,0.4849 -4.0305,2.7716 -4.3383,5.6474 -0.5323,4.9750 -0.7744,15.2004 -0.0646,21.1740 0.4102,3.4529 3.5203,7.5668 8.5912,7.6495 5.2636,-0.3187 6.8249,2.4020 6.9842,8.7400 l 2.3142,0.0356 c 0.1475,-2.2509 0.1159,-4.3060 0.7718,-6.5212 0.1628,-0.5681 0.3259,-1.1359 0.4889,-1.7037 0.0678,-0.2364 0.2946,-0.2594 0.6377,-0.2594 4.7750,0 14.3244,-0.0611 14.3244,-0.0611 10.2141,-0.0438 14.4040,-0.0998 16.5240,-0.7168 1.6721,-0.4868 3.1169,-2.1864 3.2750,-4.3085 0.6449,-8.6563 0.5459,-16.7362 0.0036,-25.4021 -0.1110,-1.7744 -2.6184,-4.9652 -5.9270,-4.9743 l -20.3039,-0.056 c -3.5252,-0.01 -6.5525,-0.0147 -9.1582,0 z m -5.8112,5.4659 c 10.2311,0.0114 20.2091,0.1473 30.7010,0.1473 2.1549,0 4.0164,3.4463 4.0164,5.04 0,2.4362 -0.1609,12.3461 -0.1609,15.0532 0,1.6027 -1.6375,4.2770 -3.9578,4.2770 -11.2895,0 -21.6183,0.0947 -32.9030,0.0947 -2.2467,0 -2.9678,-0.9563 -2.9885,-3.6233 -0.0457,-5.8981 -0.0732,-10.7015 -0.1609,-17.0967 -0.0336,-2.4551 1.8061,-3.8966 5.4539,-3.8923 z"
    class="bubble" />
</svg>
