<svg xmlns="http://www.w3.org/2000/svg" viewBox="0 0 76 76" height="76" width="76" xmlns:xlink="http://www.w3.org/1999/xlink">
  <defs>
    <g id="logo">
      <path
        fill="currentColor"
        d="m -1e-5,5.44417 C -10e-6,2.43824 2.51441,0 5.61626,0 h 64.76748 c 3.10173,0 5.61625,2.43824 5.61625,5.44417 V 70.55584 C 75.99999,73.56276 73.48547,76 70.38374,76 H 5.61626 C 2.51441,76 -9.9999999e-6,73.56276 -9.9999999e-6,70.55584 Z" />
      <path
        fill="white"
        d="M 23.03795,63.61988 V 29.30162 H 11.55882 V 63.61988 Z M 17.29833,24.61604 c 4.00301,0 6.49454,-2.63525 6.49454,-5.92857 -0.0746,-3.36744 -2.49153,-5.92958 -6.4186,-5.92958 -3.92667,0 -6.49403,2.56214 -6.49403,5.92958 0,3.29332 2.49102,5.92857 6.34329,5.92857 h 0.0746 z" />
      <path
        fill="white"
        d="M 29.3897,63.61988 H 40.86873 V 44.45511 c 0,-1.02567 0.0746,-2.05033 0.37772,-2.78352 0.82982,-2.04931 2.7186,-4.17173 5.88973,-4.17173 4.15374,0 5.81533,3.14708 5.81533,7.76055 v 18.35947 h 11.47811 v -19.6776 c 0,-10.54104 -5.66317,-15.44596 -13.21554,-15.44596 -6.19264,0 -8.91124,3.43954 -10.42169,5.78233 h 0.0766 v -4.97703 h -11.479 c 0.15064,3.22019 0,34.31826 0,34.31826 z" />
    </g>
  </defs>
  <use xlink:href="#logo" x="0" y="0" />
</svg>
