<?xml version="1.0" encoding="UTF-8"?>
<svg
   xmlns="http://www.w3.org/2000/svg"
   version="1.1"
   viewBox="0 0 400 400"
   height="400"
   width="400">
  <path
     d="m 10,228.370 13.236,-58.370 h 23.629 l 1.079,32.607 15.907,-32.607 H 87.539 L 74.248,228.370 H 57.091 l 7.099,-31.382 -15.960,31.382 H 35.903 l -0.623,-31.382 -7.951,31.382 z m 79.587,-48.855 h 15.960 l 2.158,-9.514 H 91.687 Z m 4.883,48.912 -16.074,-0.051 9.825,-43.234 H 104.296 Z M 155.367,185.136 h 14.371 l -1.248,5.341 c 1.988,-2.392 4.373,-3.893 7.385,-4.896 a 23.295,22.818 0 0 1 7.497,-1.168 l -3.692,14.077 c -0.907,0 -12.041,-2.115 -15.506,14.521 l -3.578,15.410 h -15.169 z" />
  <path
     d="m 146.963,212.401 c 0,0.333 -5.054,17.692 -27.266,17.250 -29.768,-0.612 -22.040,-47.350 11.757,-45.682 19.199,0.944 18.235,16.580 18.064,17.250 h -16.587 c 0.226,-0.612 0.795,-7.067 -4.487,-6.954 -9.825,0.278 -16.815,24.147 -5.964,24.371 4.998,0.167 7.329,-5.508 7.783,-6.230 h 16.702 z m 142.528,17.417 c -32.322,-1.335 -22.608,-47.965 10.566,-46.406 31.187,1.500 22.322,47.685 -10.566,46.406 z m 9.484,-36.226 c -10.735,-2.112 -18.745,23.147 -8.515,25.207 11.357,2.337 18.972,-23.146 8.515,-25.207 z" />
  <path
     d="m 350.050,178.736 c -4.434,0 -5.281,1.667 -6.020,4.950 l -0.286,1.446 h 9.374 l 2.330,-10.459 h 14.651 l -2.272,10.459 h 7.553 l -2.211,9.959 h -7.558 l -4.146,18.973 c -0.168,1.057 -0.565,2.001 -0.168,3.169 0.623,1.723 6.929,1.003 6.929,1.003 l -2.440,9.905 c 0,0 -12.838,1.446 -17.159,-1.503 -1.929,-1.278 -4.032,-3.949 -2.723,-9.680 l 4.940,-21.811 -8.803,-0.051 -7.439,33.273 h -15.794 l 7.384,-33.273 h -8.124 l 2.272,-9.959 h 7.896 c 1.417,-5.562 2.667,-9.347 6.189,-12.241 4.829,-3.839 17.385,-2.337 17.385,-2.337 z m -141.790,34.832 29.991,-0.051 c 0,0 -2.555,6.509 6.875,6.566 6.531,0 9.086,-7.289 0.282,-8.791 -4.032,-0.725 -19.653,-3.284 -17.891,-15.081 1.478,-9.680 11.757,-13.075 23.007,-12.907 23.007,0.276 18.692,13.522 18.972,14.412 h -15.338 c 0,0 1.647,-5.562 -5.281,-5.562 -6.304,0 -7.841,5.562 -0.570,7.064 8.864,1.892 19.033,2.337 19.597,13.522 0.168,3.116 -1.701,17.692 -24.881,17.250 -21.244,-0.444 -22.719,-10.237 -22.153,-14.798 -3.863,7.955 -13.522,15.023 -26.414,14.579 -32.321,-1.001 -22.494,-47.911 10.622,-46.295 15.054,0.722 20.793,11.906 18.972,22.923 -0.282,1.948 -0.451,2.225 -1.022,2.392 z m -4.376,-20.032 c -10.624,-2.058 -18.575,23.090 -8.408,25.207 11.251,2.282 18.806,-23.146 8.408,-25.207 z m 180.364,-8.456 c 7.669,0 7.669,11.184 0,11.184 -7.669,0 -7.669,-11.184 0,-11.184 z m 0,1.001 c -6.418,0 -6.418,9.125 0,9.125 6.473,0 6.473,-9.125 0,-9.125 z m 1.022,5.228 1.134,2.225 h -1.363 l -0.907,-2.225 h -0.797 l -0.337,2.392 h -1.194 l 0.966,-5.953 h 2.782 c 0,0 1.531,0.390 1.417,1.835 -0.166,1.723 -1.583,1.723 -1.699,1.723 z m -0.286,-2.780 h -1.129 l -0.286,1.948 h 1.134 c 0,0 1.134,0.167 1.248,-0.946 0,-1.001 -0.966,-1.001 -0.966,-1.001 z" />
</svg>
