<svg viewBox="0 0 184 24" version="1.1" xmlns="http://www.w3.org/2000/svg" xmlns:xlink="http://www.w3.org/1999/xlink">
  <defs>
    <symbol id="revacomm_logo" viewBox="0 0 184 24">
          <path d="M95,17.1c-1.2,1.3-2.9,1.9-4.9,1.9c-2,0-3.7-0.6-4.9-1.9c-1.2-1.3-1.8-3-1.8-5.2c0-2,0.6-3.7,1.9-5C86.5,5.7,88.1,5,90.1,5c2,0,3.7,0.6,4.9,1.9l3-3.7c-2.2-1.8-4.9-2.7-7.9-2.7c-3.4,0-6.2,1.1-8.6,3.3C79.2,6,78,8.7,78,11.8c0,3.3,1.1,6.1,3.4,8.3c2.3,2.2,5.1,3.4,8.6,3.4c3.1,0,5.8-0.9,8-2.7L95,17.1z"></path>
          <path d="M34.8,13.2H18.5c0.1,1.8,0.7,3.2,1.8,4.3c1.1,1,2.5,1.6,4.1,1.6c1.3,0,2.4-0.3,3.2-0.9c0.8-0.6,1.8-1.7,2.9-3.3l4.4,2.4c-0.7,1.1-1.4,2.1-2.2,2.9c-0.8,0.8-1.6,1.5-2.5,2c-0.9,0.5-1.8,0.9-2.8,1.1c-1,0.2-2.1,0.4-3.3,0.4c-3.4,0-6.1-1-8.2-3.1C14,18.3,13,15.5,13,12c0-3.4,1-6.2,3-8.4c2-2.1,4.7-3.2,8-3.2c3.3,0,6,1,7.9,3.1c1.9,2,2.9,4.8,2.9,8.4L34.8,13.2z M29.4,9.1c-0.7-2.7-2.5-4-5.3-4c-0.6,0-1.2,0.1-1.8,0.3c-0.6,0.2-1.1,0.5-1.5,0.8c-0.5,0.4-0.9,0.8-1.2,1.3S19,8.4,18.8,9.1H29.4z"></path>
          <path d="M38.7,1l5.8,12l5.7-12H56L44.5,24L33,1H38.7z"></path>
          <path d="M152,10c0-5-4-9-9-9c-2.6,0-5.8,2-6.5,3.8C135.6,3,132.6,1,130,1c-5,0-9,4-9,9v12h5V10c0-2.2,1.8-4,4-4s4,1.8,4,4v12h5V10l0,0c0-2.2,1.8-4,4-4s4,1.8,4,4v12h5V10L152,10z"></path>
          <path d="M184,10c0-5-4-9-9-9c-2.6,0-5.8,2-6.5,3.8C167.6,3,164.6,1,162,1c-5,0-9,4-9,9v12h5V10c0-2.2,1.8-4,4-4s4,1.8,4,4v12h5V10l0,0c0-2.2,1.8-4,4-4s4,1.8,4,4v12h5V10L184,10z"></path>
          <path d="M96,11.8c0-3.1,1.2-5.8,3.5-8c2.3-2.2,5.2-3.3,8.5-3.3c3.4,0,6.2,1.1,8.5,3.3c2.3,2.2,3.5,4.9,3.5,8.2c0,3.3-1.2,6-3.5,8.2c-2.3,2.2-5.2,3.3-8.6,3.3c-3.4,0-6.2-1.1-8.5-3.4C97.1,17.9,96,15.2,96,11.8z M101.3,11.9c0,2.2,0.6,3.9,1.8,5.2c1.2,1.3,2.9,1.9,4.9,1.9c2,0,3.7-0.6,4.9-1.9c1.2-1.3,1.8-3,1.8-5.1c0-2.1-0.6-3.8-1.8-5.1C111.6,5.7,110,5,108,5c-2,0-3.6,0.6-4.8,1.9C101.9,8.2,101.3,9.9,101.3,11.9z"></path>
          <path d="M13.2,1.1c-0.7-0.3-1.6-0.5-2.5-0.6c-0.2,0-0.3,0-0.5,0c-0.2,0-0.4,0-0.6,0C8.8,0.6,6.4,0.9,5,2.9V1H0v22h5V11.9c0-3,0.7-4.9,2.1-5.8c0.6-0.3,1.2-0.5,1.7-0.6c0.1,0,0.3,0,0.4,0c0.2,0,0.3,0,0.5,0c0.7,0.1,1.4,0.4,2.2,0.9C12,6.5,12,6.5,12.1,6.6L15,2.2C14.4,1.7,13.8,1.3,13.2,1.1z"></path>
          <path d="M77,1v22h-5v-2.4c-2.2,1.9-4.5,2.9-7,2.9c-3.2,0-5.8-1.1-7.9-3.3C55,18,54,15.2,54,11.9c0-3.3,1-6,3.1-8.2c2-2.2,4.6-3.3,7.7-3.3c2.7,0,5.1,1,7.2,3.1V1H77z M72,12c0-2-0.6-3.7-1.8-5.1C69.1,5.7,67.6,5,65.7,5c-1.8,0-3.2,0.7-4.4,2c-1.2,1.3-1.8,3-1.8,4.9c0,2.1,0.6,3.8,1.7,5.1c1.2,1.3,2.7,2,4.4,2c1.9,0,3.4-0.6,4.6-1.9C71.4,15.7,72,14.1,72,12z"></path>
    </symbol>
  </defs>
  <use xlink:href="#revacomm_logo"></use>
</svg>
