<?xml version="1.0" encoding="UTF-8"?>
<svg
   xmlns="http://www.w3.org/2000/svg"
   id="svg2938"
   height="400"
   width="400"
   version="1.1">
  <style>
    .text { fill: #000066 }
    .ground { fill: #006600 }
  </style>
  <path
    d="m 96.1969,80.5736 -0.4673,65.5552 c 0,27.2445 -16.1967,37.8188 -37.9586,37.8188 -18.7600,0 -42.6346,-8.3258 -42.6346,-36.7047 V 80.5736 c 0,-3.6907 -2.5734,-5.9314 -5.1347,-7.2158 h 30.7600 c -2.5512,1.2844 -4.9629,3.5251 -4.9629,7.2158 v 67.1529 c 0,11.2214 3.8490,27.0929 24.6609,27.0929 19.0731,0 25.9747,-12.5043 25.9747,-28.3773 L 86.1234,80.5736 c 0,-3.6907 -1.9225,-5.9314 -4.3342,-7.2158 h 18.5923 c -2.4157,1.2844 -4.1846,3.5251 -4.1846,7.2158"
    class="text" />
  <path
    d="m 139.5964,183.9477 c -14.5554,0 -25.1404,-4.9685 -30.7364,-7.6844 l -0.8145,-27.0874 c 3.0508,11.3695 12.6473,26.4459 29.3231,26.4459 15.8679,0 20.6752,-11.3814 20.6752,-19.2383 0,-15.3937 -13.9613,-17.4770 -28.5168,-25.3276 -14.7454,-8.1762 -21.1539,-16.8216 -21.1539,-29.0060 0,-21.7968 20.3434,-30.4520 34.9331,-30.4520 5.4443,0 16.0050,1.1120 24.1825,5.9273 l 0.7944,23.7196 c -2.2279,-8.4936 -11.3654,-21.3190 -26.7598,-21.3190 -12.1701,0 -16.9692,8.4957 -16.9692,15.3896 0,9.7739 6.8934,13.4709 21.9442,20.3586 14.9172,7.0538 30.4471,12.3423 30.4471,34.6284 0,20.0314 -17.6342,33.6453 -37.3489,33.6453"
    class="text" />
  <path
    d="m 226.7756,81.3640 c -3.8613,0 -12.3438,0 -14.7540,0.3235 v 92.3261 h 12.8153 c 36.2258,0 46.3220,-24.3707 46.3220,-47.7712 0,-19.2237 -11.2239,-44.8785 -44.3833,-44.8785 z m 1.9066,100.9846 h -41.1647 c 2.3957,-1.4440 4.1745,-3.6890 4.1745,-7.2164 V 80.5651 c 0,-3.6910 -1.7788,-5.9319 -4.1745,-7.2164 h 42.6304 c 52.7002,0 63.2695,37.3555 63.2695,52.8939 0,27.8961 -21.4640,56.1060 -64.7352,56.1060"
    class="text" />
  <path
    d="m 330.3900,104.6200 c 0,0 -10.9017,27.2483 -16.0204,39.2626 h 32.3642 c -7.524,-17.7981 -16.3438,-39.2626 -16.3438,-39.2626 z m 25.3091,77.7285 c 4.1545,-2.2447 4.9747,-4.4874 3.8533,-7.8468 -0.4916,-1.6053 -4.6497,-11.3915 -9.1293,-22.2814 H 311.1658 c -4.8091,10.8899 -8.6521,20.3524 -8.9838,22.1178 -1.4314,3.8465 -0.6344,6.0850 3.6975,8.0104 h -22.1010 c 4.4816,-3.0415 5.9145,-4.8053 7.5059,-7.8468 3.0522,-6.0928 45.1963,-104.5031 45.1963,-104.5031 0,0 42.6279,98.4103 45.5042,104.5031 1.5991,3.3593 2.7091,5.1247 8.0135,7.8468 h -34.2992"
    class="text" />
  <path
    d="m 385.1902,197.7437 c 0,0 -233.1674,-5.7898 -371.2586,67.8216 0,0 146.3555,-57.8985 371.2586,-52.1071 v -15.7145"
    class="ground" />
  <path
    d="m 13.9315,197.7437 c 0,0 78.5520,0.8251 127.3283,19.0230 0,0 -100.0432,-8.2727 -127.3283,-4.1311 v -14.8919"
    class="ground" />
  <path
    d="m 13.9315,223.3917 c 0,0 56.2297,-2.4875 90.1212,0.8252 0,0 -81.8408,9.9168 -90.1212,14.0459 V 223.3917"
    class="ground" />
  <path
    d="m 346.5500,225.9175 c -0.3777,-0.0259 -0.8816,0.0207 -1.2053,0.0259 -67.8029,1.3004 -209.9897,9.4784 -331.3485,52.3701 v 51.6878 H 385.2305 V 225.9175 c 0,0 -14.4077,-0.4452 -38.6805,0"
    class="ground" />
</svg>
